<?xml version="1.0" encoding="UTF-8"?>
<!--Generator: Apple Native CoreSVG 175.5-->
<!DOCTYPE svg
PUBLIC "-//W3C//DTD SVG 1.1//EN"
       "http://www.w3.org/Graphics/SVG/1.1/DTD/svg11.dtd">
<svg version="1.1" xmlns="http://www.w3.org/2000/svg" xmlns:xlink="http://www.w3.org/1999/xlink" width="3300" height="2200">
 <!--glyph: "", point size: 100.0, font version: "18.0d12e2", template writer version: "101"-->
 <g id="Notes">
  <rect height="2200" id="artboard" style="fill:white;opacity:1" width="3300" x="0" y="0"/>
  <line style="fill:none;stroke:black;opacity:1;stroke-width:0.5;" x1="263" x2="3036" y1="292" y2="292"/>
  <text style="stroke:none;fill:black;font-family:sans-serif;font-size:13;font-weight:bold;" transform="matrix(1 0 0 1 263 322)">Weight/Scale Variations</text>
  <text style="stroke:none;fill:black;font-family:sans-serif;font-size:13;text-anchor:middle;" transform="matrix(1 0 0 1 559.711 322)">Ultralight</text>
  <text style="stroke:none;fill:black;font-family:sans-serif;font-size:13;text-anchor:middle;" transform="matrix(1 0 0 1 856.422 322)">Thin</text>
  <text style="stroke:none;fill:black;font-family:sans-serif;font-size:13;text-anchor:middle;" transform="matrix(1 0 0 1 1153.13 322)">Light</text>
  <text style="stroke:none;fill:black;font-family:sans-serif;font-size:13;text-anchor:middle;" transform="matrix(1 0 0 1 1449.84 322)">Regular</text>
  <text style="stroke:none;fill:black;font-family:sans-serif;font-size:13;text-anchor:middle;" transform="matrix(1 0 0 1 1746.56 322)">Medium</text>
  <text style="stroke:none;fill:black;font-family:sans-serif;font-size:13;text-anchor:middle;" transform="matrix(1 0 0 1 2043.27 322)">Semibold</text>
  <text style="stroke:none;fill:black;font-family:sans-serif;font-size:13;text-anchor:middle;" transform="matrix(1 0 0 1 2339.98 322)">Bold</text>
  <text style="stroke:none;fill:black;font-family:sans-serif;font-size:13;text-anchor:middle;" transform="matrix(1 0 0 1 2636.69 322)">Heavy</text>
  <text style="stroke:none;fill:black;font-family:sans-serif;font-size:13;text-anchor:middle;" transform="matrix(1 0 0 1 2933.4 322)">Black</text>
  <line style="fill:none;stroke:black;opacity:1;stroke-width:0.5;" x1="263" x2="3036" y1="1903" y2="1903"/>
  <g transform="matrix(1 0 0 1 263 1933)">
   <path d="M9.24805 0.830078C13.5547 0.830078 17.1387-2.74414 17.1387-7.05078C17.1387-11.3574 13.5449-14.9316 9.23828-14.9316C4.94141-14.9316 1.36719-11.3574 1.36719-7.05078C1.36719-2.74414 4.95117 0.830078 9.24805 0.830078ZM9.24805-0.654297C5.70312-0.654297 2.87109-3.49609 2.87109-7.05078C2.87109-10.6055 5.69336-13.4473 9.23828-13.4473C12.793-13.4473 15.6445-10.6055 15.6445-7.05078C15.6445-3.49609 12.8027-0.654297 9.24805-0.654297ZM5.6543-7.05078C5.6543-6.62109 5.95703-6.32812 6.40625-6.32812L8.50586-6.32812L8.50586-4.20898C8.50586-3.76953 8.79883-3.4668 9.22852-3.4668C9.67773-3.4668 9.9707-3.76953 9.9707-4.20898L9.9707-6.32812L12.0898-6.32812C12.5293-6.32812 12.832-6.62109 12.832-7.05078C12.832-7.49023 12.5293-7.79297 12.0898-7.79297L9.9707-7.79297L9.9707-9.90234C9.9707-10.3516 9.67773-10.6543 9.22852-10.6543C8.79883-10.6543 8.50586-10.3516 8.50586-9.90234L8.50586-7.79297L6.40625-7.79297C5.95703-7.79297 5.6543-7.49023 5.6543-7.05078Z"/>
  </g>
  <g transform="matrix(1 0 0 1 281.867 1933)">
   <path d="M11.709 2.91016C17.1582 2.91016 21.6699-1.61133 21.6699-7.05078C21.6699-12.5 17.1484-17.0117 11.6992-17.0117C6.25977-17.0117 1.74805-12.5 1.74805-7.05078C1.74805-1.61133 6.26953 2.91016 11.709 2.91016ZM11.709 1.25C7.09961 1.25 3.41797-2.44141 3.41797-7.05078C3.41797-11.6602 7.08984-15.3516 11.6992-15.3516C16.3086-15.3516 20.0098-11.6602 20.0098-7.05078C20.0098-2.44141 16.3184 1.25 11.709 1.25ZM7.17773-7.05078C7.17773-6.57227 7.50977-6.25 8.00781-6.25L10.8789-6.25L10.8789-3.36914C10.8789-2.88086 11.2109-2.53906 11.6895-2.53906C12.1777-2.53906 12.5195-2.87109 12.5195-3.36914L12.5195-6.25L15.4004-6.25C15.8887-6.25 16.2305-6.57227 16.2305-7.05078C16.2305-7.53906 15.8887-7.88086 15.4004-7.88086L12.5195-7.88086L12.5195-10.752C12.5195-11.25 12.1777-11.5918 11.6895-11.5918C11.2109-11.5918 10.8789-11.25 10.8789-10.752L10.8789-7.88086L8.00781-7.88086C7.50977-7.88086 7.17773-7.53906 7.17773-7.05078Z"/>
  </g>
  <g transform="matrix(1 0 0 1 305.646 1933)">
   <path d="M14.9707 5.66406C21.9336 5.66406 27.6953-0.0976562 27.6953-7.05078C27.6953-14.0137 21.9238-19.7754 14.9609-19.7754C8.00781-19.7754 2.25586-14.0137 2.25586-7.05078C2.25586-0.0976562 8.01758 5.66406 14.9707 5.66406ZM14.9707 3.84766C8.93555 3.84766 4.08203-1.01562 4.08203-7.05078C4.08203-13.0957 8.92578-17.9492 14.9609-17.9492C21.0059-17.9492 25.8691-13.0957 25.8691-7.05078C25.8691-1.01562 21.0156 3.84766 14.9707 3.84766ZM9.19922-7.05078C9.19922-6.5332 9.57031-6.17188 10.1172-6.17188L14.0625-6.17188L14.0625-2.2168C14.0625-1.67969 14.4336-1.29883 14.9512-1.29883C15.4883-1.29883 15.8594-1.66992 15.8594-2.2168L15.8594-6.17188L19.8145-6.17188C20.3516-6.17188 20.7324-6.5332 20.7324-7.05078C20.7324-7.59766 20.3613-7.96875 19.8145-7.96875L15.8594-7.96875L15.8594-11.9141C15.8594-12.4609 15.4883-12.8418 14.9512-12.8418C14.4336-12.8418 14.0625-12.4609 14.0625-11.9141L14.0625-7.96875L10.1172-7.96875C9.57031-7.96875 9.19922-7.59766 9.19922-7.05078Z"/>
  </g>
  <text style="stroke:none;fill:black;font-family:sans-serif;font-size:13;font-weight:bold;" transform="matrix(1 0 0 1 263 1953)">Design Variations</text>
  <text style="stroke:none;fill:black;font-family:sans-serif;font-size:13;" transform="matrix(1 0 0 1 263 1971)">Symbols are supported in up to nine weights and three scales.</text>
  <text style="stroke:none;fill:black;font-family:sans-serif;font-size:13;" transform="matrix(1 0 0 1 263 1989)">For optimal layout with text and other symbols, vertically align</text>
  <text style="stroke:none;fill:black;font-family:sans-serif;font-size:13;" transform="matrix(1 0 0 1 263 2007)">symbols with the adjacent text.</text>
  <line style="fill:none;stroke:#00AEEF;stroke-width:0.5;opacity:1.0;" x1="776" x2="776" y1="1919" y2="1933"/>
  <g transform="matrix(1 0 0 1 776 1933)">
   <path d="M3.31055 0.15625C3.82812 0.15625 4.08203-0.0390625 4.26758-0.585938L5.52734-4.0332L11.2891-4.0332L12.5488-0.585938C12.7344-0.0390625 12.9883 0.15625 13.4961 0.15625C14.0137 0.15625 14.3457-0.15625 14.3457-0.644531C14.3457-0.810547 14.3164-0.966797 14.2383-1.17188L9.6582-13.3691C9.43359-13.9648 9.0332-14.2676 8.4082-14.2676C7.80273-14.2676 7.39258-13.9746 7.17773-13.3789L2.59766-1.16211C2.51953-0.957031 2.49023-0.800781 2.49023-0.634766C2.49023-0.146484 2.80273 0.15625 3.31055 0.15625ZM6.00586-5.51758L8.37891-12.0898L8.42773-12.0898L10.8008-5.51758Z"/>
  </g>
  <line style="fill:none;stroke:#00AEEF;stroke-width:0.5;opacity:1.0;" x1="793.197" x2="793.197" y1="1919" y2="1933"/>
  <text style="stroke:none;fill:black;font-family:sans-serif;font-size:13;font-weight:bold;" transform="matrix(1 0 0 1 776 1953)">Margins</text>
  <text style="stroke:none;fill:black;font-family:sans-serif;font-size:13;" transform="matrix(1 0 0 1 776 1971)">Leading and trailing margins on the left and right side of each symbol</text>
  <text style="stroke:none;fill:black;font-family:sans-serif;font-size:13;" transform="matrix(1 0 0 1 776 1989)">can be adjusted by modifying the x-location of the margin guidelines.</text>
  <text style="stroke:none;fill:black;font-family:sans-serif;font-size:13;" transform="matrix(1 0 0 1 776 2007)">Modifications are automatically applied proportionally to all</text>
  <text style="stroke:none;fill:black;font-family:sans-serif;font-size:13;" transform="matrix(1 0 0 1 776 2025)">scales and weights.</text>
  <g transform="matrix(1 0 0 1 1289 1933)">
   <path d="M2.8418 1.86523L4.54102 3.57422C5.40039 4.44336 6.38672 4.38477 7.31445 3.35938L18.0078-8.42773L17.041-9.4043L6.42578 2.27539C6.07422 2.67578 5.74219 2.77344 5.27344 2.30469L4.10156 1.14258C3.63281 0.683594 3.74023 0.341797 4.14062-0.0195312L15.6152-10.8203L14.6387-11.7871L3.04688-0.898438C2.06055 0.0195312 1.98242 0.996094 2.8418 1.86523ZM9.25781-16.3281C8.83789-15.918 8.80859-15.3418 9.04297-14.9512C9.27734-14.5898 9.73633-14.3555 10.3809-14.5215C11.8457-14.8633 13.3691-14.9219 14.7949-13.9844L14.209-12.5293C13.8672-11.6992 14.043-11.1133 14.5801-10.5664L16.875-8.25195C17.3633-7.76367 17.7734-7.74414 18.3398-7.8418L19.4043-8.03711L20.0684-7.36328L20.0293-6.80664C19.9902-6.30859 20.1172-5.92773 20.6055-5.44922L21.3672-4.70703C21.8457-4.22852 22.4609-4.19922 22.9297-4.66797L25.8398-7.58789C26.3086-8.05664 26.2891-8.65234 25.8105-9.13086L25.0391-9.89258C24.5605-10.3711 24.1895-10.5273 23.7109-10.4883L23.1348-10.4395L22.4902-11.0742L22.7344-12.1973C22.8613-12.7637 22.7051-13.2031 22.1191-13.7891L19.9219-15.9766C16.582-19.2969 12.1484-19.2188 9.25781-16.3281ZM10.752-15.957C13.1836-17.7344 16.4746-17.4316 18.7012-15.2051L21.1328-12.793C21.3672-12.5586 21.4062-12.373 21.3379-12.0312L21.0156-10.5469L22.5195-9.0625L23.5059-9.12109C23.7598-9.13086 23.8379-9.11133 24.0332-8.91602L24.6094-8.33984L22.168-5.89844L21.5918-6.47461C21.3965-6.66992 21.3672-6.74805 21.377-7.01172L21.4453-7.98828L19.9512-9.47266L18.4277-9.21875C18.1055-9.15039 17.959-9.17969 17.7148-9.41406L15.7129-11.416C15.459-11.6504 15.4297-11.8164 15.5859-12.1875L16.4648-14.2773C14.9023-15.7324 12.8711-16.3574 10.8398-15.7617C10.6836-15.7227 10.625-15.8496 10.752-15.957Z"/>
  </g>
  <text style="stroke:none;fill:black;font-family:sans-serif;font-size:13;font-weight:bold;" transform="matrix(1 0 0 1 1289 1953)">Exporting</text>
  <text style="stroke:none;fill:black;font-family:sans-serif;font-size:13;" transform="matrix(1 0 0 1 1289 1971)">Symbols should be outlined when exporting to ensure the</text>
  <text style="stroke:none;fill:black;font-family:sans-serif;font-size:13;" transform="matrix(1 0 0 1 1289 1989)">design is preserved when submitting to Xcode.</text>
  <text id="template-version" style="stroke:none;fill:black;font-family:sans-serif;font-size:13;text-anchor:end;" transform="matrix(1 0 0 1 3036 1933)">Template v.4.0</text>
  <text style="stroke:none;fill:black;font-family:sans-serif;font-size:13;text-anchor:end;" transform="matrix(1 0 0 1 3036 1951)">Requires Xcode 14 or greater</text>
  <text id="descriptive-name" style="stroke:none;fill:black;font-family:sans-serif;font-size:13;text-anchor:end;" transform="matrix(1 0 0 1 3036 1969)">Generated from custom.info.circle.fill</text>
  <text style="stroke:none;fill:black;font-family:sans-serif;font-size:13;text-anchor:end;" transform="matrix(1 0 0 1 3036 1987)">Typeset at 100 points</text>
  <text style="stroke:none;fill:black;font-family:sans-serif;font-size:13;" transform="matrix(1 0 0 1 263 726)">Small</text>
  <text style="stroke:none;fill:black;font-family:sans-serif;font-size:13;" transform="matrix(1 0 0 1 263 1156)">Medium</text>
  <text style="stroke:none;fill:black;font-family:sans-serif;font-size:13;" transform="matrix(1 0 0 1 263 1586)">Large</text>
 </g>
 <g id="Guides">
  <g id="H-reference" style="fill:#27AAE1;stroke:none;" transform="matrix(1 0 0 1 339 696)">
   <path d="M0.993654 0L3.63775 0L29.3281-67.1323L30.0303-67.1323L30.0303-70.459L28.1226-70.459ZM11.6885-24.4799L46.9815-24.4799L46.2315-26.7285L12.4385-26.7285ZM55.1196 0L57.7637 0L30.6382-70.459L29.4326-70.459L29.4326-67.1323Z"/>
  </g>
  <line id="Baseline-S" style="fill:none;stroke:#27AAE1;opacity:1;stroke-width:0.5;" x1="263" x2="3036" y1="696" y2="696"/>
  <line id="Capline-S" style="fill:none;stroke:#27AAE1;opacity:1;stroke-width:0.5;" x1="263" x2="3036" y1="625.541" y2="625.541"/>
  <g id="H-reference" style="fill:#27AAE1;stroke:none;" transform="matrix(1 0 0 1 339 1126)">
   <path d="M0.993654 0L3.63775 0L29.3281-67.1323L30.0303-67.1323L30.0303-70.459L28.1226-70.459ZM11.6885-24.4799L46.9815-24.4799L46.2315-26.7285L12.4385-26.7285ZM55.1196 0L57.7637 0L30.6382-70.459L29.4326-70.459L29.4326-67.1323Z"/>
  </g>
  <line id="Baseline-M" style="fill:none;stroke:#27AAE1;opacity:1;stroke-width:0.5;" x1="263" x2="3036" y1="1126" y2="1126"/>
  <line id="Capline-M" style="fill:none;stroke:#27AAE1;opacity:1;stroke-width:0.5;" x1="263" x2="3036" y1="1055.54" y2="1055.54"/>
  <g id="H-reference" style="fill:#27AAE1;stroke:none;" transform="matrix(1 0 0 1 339 1556)">
   <path d="M0.993654 0L3.63775 0L29.3281-67.1323L30.0303-67.1323L30.0303-70.459L28.1226-70.459ZM11.6885-24.4799L46.9815-24.4799L46.2315-26.7285L12.4385-26.7285ZM55.1196 0L57.7637 0L30.6382-70.459L29.4326-70.459L29.4326-67.1323Z"/>
  </g>
  <line id="Baseline-L" style="fill:none;stroke:#27AAE1;opacity:1;stroke-width:0.5;" x1="263" x2="3036" y1="1556" y2="1556"/>
  <line id="Capline-L" style="fill:none;stroke:#27AAE1;opacity:1;stroke-width:0.5;" x1="263" x2="3036" y1="1485.54" y2="1485.54"/>
  <line id="left-margin-Regular-M" style="fill:none;stroke:#00AEEF;stroke-width:0.5;opacity:1.0;" x1="1391.32" x2="1391.32" y1="1030.79" y2="1150.12"/>
  <line id="right-margin-Regular-M" style="fill:none;stroke:#00AEEF;stroke-width:0.5;opacity:1.0;" x1="1508.37" x2="1508.37" y1="1030.79" y2="1150.12"/>
 </g>
 <g id="Symbols">
  <g id="Black-L" transform="matrix(1 0 0 1 2854.19 1556)">
   <path d="M79.1957 32.7257C116.56 32.7257 147.154 2.15265 147.154-35.2113C147.154-72.5752 116.539-103.148 79.1749-103.148C41.8307-103.148 11.2588-72.5752 11.2588-35.2113C11.2588 2.15265 41.8515 32.7257 79.1957 32.7257ZM66.9369 0.410284C62.9764 0.410284 59.9112-2.32475 59.9112-6.47775C59.9112-10.2555 62.9764-13.2658 66.9369-13.2658L73.7917-13.2658L73.7917-32.2559L68.3052-32.2559C64.328-32.2559 61.242-35.0493 61.242-39.1439C61.242-42.9229 64.328-45.9319 68.3052-45.9319L81.528-45.9319C86.6676-45.9319 89.3003-42.4683 89.3003-37.035L89.3003-13.2658L93.9355-13.2658C97.874-13.2658 100.961-10.2555 100.961-6.47775C100.961-2.32475 97.874 0.410284 93.9355 0.410284ZM79.3797-53.8968C73.5531-53.8968 68.6453-58.8241 68.6453-64.5923C68.6453-70.6735 73.5531-75.3863 79.3797-75.3863C85.2063-75.3863 90.0151-70.6735 90.0151-64.5923C90.0151-58.8241 85.2063-53.8968 79.3797-53.8968Z"/>
  </g>
  <g id="Heavy-L" transform="matrix(1 0 0 1 2558.42 1556)">
   <path d="M78.2532 31.7694C115.056 31.7694 145.278 1.57799 145.278-35.2251C145.278-72.0281 115.026-102.22 78.223-102.22C41.4446-102.22 11.2588-72.0281 11.2588-35.2251C11.2588 1.57799 41.4748 31.7694 78.2532 31.7694ZM66.2022 0.541825C62.5726 0.541825 59.7838-1.9803 59.7838-5.75711C59.7838-9.19011 62.5726-11.9511 66.2022-11.9511L73.4107-11.9511L73.4107-33.6928L67.4806-33.6928C63.8668-33.6928 61.0478-36.2595 61.0478-39.9917C61.0478-43.4303 63.8668-46.1857 67.4806-46.1857L80.4911-46.1857C85.1453-46.1857 87.5513-43.0116 87.5513-38.0996L87.5513-11.9511L93.0641-11.9511C96.6578-11.9511 99.4825-9.19011 99.4825-5.75711C99.4825-1.9803 96.6578 0.541825 93.0641 0.541825ZM78.2795-54.8643C72.7635-54.8643 68.1586-59.4936 68.1586-64.965C68.1586-70.6899 72.7635-75.1361 78.2795-75.1361C83.7955-75.1361 88.3009-70.6899 88.3009-64.965C88.3009-59.4936 83.7955-54.8643 78.2795-54.8643Z"/>
  </g>
  <g id="Bold-L" transform="matrix(1 0 0 1 2262.89 1556)">
   <path d="M77.0704 30.5711C113.182 30.5711 142.92 0.870913 142.92-35.2405C142.92-71.3519 113.144-101.052 77.0324-101.052C40.9458-101.052 11.2588-71.3519 11.2588-35.2405C11.2588 0.870913 40.9838 30.5711 77.0704 30.5711ZM65.2358 0.576549C62.0433 0.576549 59.6225-1.66189 59.6225-4.94028C59.6225-7.9207 62.0433-10.3519 65.2358-10.3519L72.9791-10.3519L72.9791-35.5946L66.3841-35.5946C63.2385-35.5946 60.7798-37.8623 60.7798-41.1114C60.7798-44.1051 63.2385-46.5231 66.3841-46.5231L79.1706-46.5231C83.1882-46.5231 85.295-43.7399 85.295-39.518L85.295-10.3519L91.9286-10.3519C95.0698-10.3519 97.5418-7.9207 97.5418-4.94028C97.5418-1.66189 95.0698 0.576549 91.9286 0.576549ZM76.9417-56.1151C71.8695-56.1151 67.6784-60.3309 67.6784-65.3739C67.6784-70.601 71.8695-74.6797 76.9417-74.6797C82.0139-74.6797 86.113-70.601 86.113-65.3739C86.113-60.3309 82.0139-56.1151 76.9417-56.1151Z"/>
  </g>
  <g id="Semibold-L" transform="matrix(1 0 0 1 1966.99 1556)">
   <path d="M76.2549 29.745C111.889 29.745 141.294 0.383458 141.294-35.2511C141.294-70.8857 111.846-100.247 76.2115-100.247C40.6019-100.247 11.2588-70.8857 11.2588-35.2511C11.2588 0.383458 40.6453 29.745 76.2549 29.745ZM64.5695 0.600488C61.6784 0.600488 59.5114-1.44238 59.5114-4.37715C59.5114-7.04557 61.6784-9.24944 64.5695-9.24944L72.6816-9.24944L72.6816-36.9057L65.6282-36.9057C62.8053-36.9057 60.5949-38.9672 60.5949-41.8834C60.5949-44.5703 62.8053-46.7557 65.6282-46.7557L78.2602-46.7557C81.8389-46.7557 83.7395-44.242 83.7395-40.4959L83.7395-9.24944L91.1458-9.24944C93.975-9.24944 96.2039-7.04557 96.2039-4.37715C96.2039-1.44238 93.975 0.600488 91.1458 0.600488ZM76.0194-56.9775C71.2532-56.9775 67.3474-60.9081 67.3474-65.6558C67.3474-70.5398 71.2532-74.365 76.0194-74.365C80.7857-74.365 84.6047-70.5398 84.6047-65.6558C84.6047-60.9081 80.7857-56.9775 76.0194-56.9775Z"/>
  </g>
  <g id="Medium-L" transform="matrix(1 0 0 1 1670.89 1556)">
   <path d="M75.6366 29.1187C110.91 29.1187 140.062 0.0138487 140.062-35.2592C140.062-70.5322 110.862-99.637 75.5892-99.637C40.3411-99.637 11.2588-70.5322 11.2588-35.2592C11.2588 0.0138487 40.3886 29.1187 75.6366 29.1187ZM64.0644 0.618639C61.4017 0.618639 59.4271-1.27594 59.4271-3.95017C59.4271-6.38202 61.4017-8.41351 64.0644-8.41351L72.456-8.41351L72.456-37.8998L65.0551-37.8998C62.4769-37.8998 60.4548-39.805 60.4548-42.4687C60.4548-44.923 62.4769-46.9321 65.0551-46.9321L77.57-46.9321C80.8158-46.9321 82.56-44.6226 82.56-41.2373L82.56-8.41351L90.5523-8.41351C93.1449-8.41351 95.1895-6.38202 95.1895-3.95017C95.1895-1.27594 93.1449 0.618639 90.5523 0.618639ZM75.3201-57.6313C70.7859-57.6313 67.0964-61.3458 67.0964-65.8696C67.0964-70.4934 70.7859-74.1264 75.3201-74.1264C79.8544-74.1264 83.461-70.4934 83.461-65.8696C83.461-61.3458 79.8544-57.6313 75.3201-57.6313Z"/>
  </g>
  <g id="Regular-L" transform="matrix(1 0 0 1 1374.99 1556)">
   <path d="M74.8301 28.3017C109.632 28.3017 138.454-0.46825 138.454-35.2697C138.454-70.0711 109.579-98.841 74.7773-98.841C40.001-98.841 11.2588-70.0711 11.2588-35.2697C11.2588-0.46825 40.0539 28.3017 74.8301 28.3017ZM63.4054 0.642315C61.0408 0.642315 59.3171-1.05885 59.3171-3.39324C59.3171-5.51651 61.0408-7.32317 63.4054-7.32317L72.1618-7.32317L72.1618-39.1965L64.3075-39.1965C62.0485-39.1965 60.272-40.8978 60.272-43.2321C60.272-45.383 62.0485-47.1621 64.3075-47.1621L76.6696-47.1621C79.4813-47.1621 81.0217-45.1192 81.0217-42.2044L81.0217-7.32317L89.7781-7.32317C92.0622-7.32317 93.8664-5.51651 93.8664-3.39324C93.8664-1.05885 92.0622 0.642315 89.7781 0.642315ZM74.408-58.4842C70.1764-58.4842 66.7689-61.9167 66.7689-66.1484C66.7689-70.4328 70.1764-73.8152 74.408-73.8152C78.6397-73.8152 81.9693-70.4328 81.9693-66.1484C81.9693-61.9167 78.6397-58.4842 74.408-58.4842Z"/>
  </g>
  <g id="Light-L" transform="matrix(1 0 0 1 1079.2 1556)">
   <path d="M73.9141 27.3856C108.257 27.3856 136.603-0.926282 136.603-35.2697C136.603-69.6131 108.224-97.9249 73.8803-97.9249C39.5239-97.9249 11.2588-69.6131 11.2588-35.2697C11.2588-0.926282 39.5576 27.3856 73.9141 27.3856ZM62.3748-0.159304C60.4873-0.159304 59.1835-1.53596 59.1835-3.31691C59.1835-4.96303 60.4873-6.40707 62.3748-6.40707L72.1236-6.40707L72.1236-41.2959L63.067-41.2959C61.2469-41.2959 59.9094-42.6727 59.9094-44.4535C59.9094-46.1464 61.2469-47.5438 63.067-47.5438L75.5245-47.5438C77.6683-47.5438 78.8841-45.9781 78.8841-43.8267L78.8841-6.40707L88.633-6.40707C90.4399-6.40707 91.8242-4.96303 91.8242-3.31691C91.8242-1.53596 90.4399-0.159304 88.633-0.159304ZM73.6446-59.6865C70.1-59.6865 67.227-62.5465 67.227-66.0911C67.227-69.6694 70.1-72.5555 73.6446-72.5555C77.1892-72.5555 80.0417-69.6694 80.0417-66.0911C80.0417-62.5465 77.1892-59.6865 73.6446-59.6865Z"/>
  </g>
  <g id="Thin-L" transform="matrix(1 0 0 1 783.716 1556)">
   <path d="M72.7025 26.174C106.44 26.174 134.155-1.53207 134.155-35.2697C134.155-69.0073 106.432-96.7133 72.6939-96.7133C38.8929-96.7133 11.2588-69.0073 11.2588-35.2697C11.2588-1.53207 38.9013 26.174 72.7025 26.174ZM61.0118-1.21951C59.7553-1.21951 59.0068-2.16698 59.0068-3.21597C59.0068-4.23101 59.7553-5.19545 61.0118-5.19545L72.0731-5.19545L72.0731-44.0725L61.4263-44.0725C60.1867-44.0725 59.4298-45.0202 59.4298-46.069C59.4298-47.156 60.1867-48.0486 61.4263-48.0486L74.01-48.0486C75.2703-48.0486 76.057-47.114 76.057-45.9722L76.057-5.19545L87.1184-5.19545C88.2944-5.19545 89.1233-4.23101 89.1233-3.21597C89.1233-2.16698 88.2944-1.21951 87.1184-1.21951ZM72.6349-61.2767C69.999-61.2767 67.8329-63.3795 67.8329-66.0154C67.8329-68.6597 69.999-70.8896 72.6349-70.8896C75.2708-70.8896 77.4923-68.6597 77.4923-66.0154C77.4923-63.3795 75.2708-61.2767 72.6349-61.2767Z"/>
  </g>
  <g id="Ultralight-L" transform="matrix(1 0 0 1 487.632 1556)">
   <path d="M72.0819 25.5534C105.509 25.5534 132.9-1.84235 132.9-35.2697C132.9-68.697 105.514-96.0927 72.0863-96.0927C38.5697-96.0927 11.2588-68.697 11.2588-35.2697C11.2588-1.84235 38.5652 25.5534 72.0819 25.5534ZM60.3137-1.76254C59.3804-1.76254 58.9163-2.49018 58.9163-3.16426C58.9163-3.85607 59.3804-4.57486 60.3137-4.57486L72.0472-4.57486L72.0472-45.4947L60.5859-45.4947C59.6437-45.4947 59.1842-46.2225 59.1842-46.8964C59.1842-47.6731 59.6437-48.3072 60.5859-48.3072L73.2342-48.3072C74.0421-48.3072 74.609-47.6958 74.609-47.0711L74.609-4.57486L86.3427-4.57486C87.1955-4.57486 87.7399-3.85607 87.7399-3.16426C87.7399-2.49018 87.1955-1.76254 86.3427-1.76254ZM72.1178-62.0913C69.9473-62.0913 68.1432-63.8061 68.1432-65.9766C68.1432-68.1426 69.9473-70.0363 72.1178-70.0363C74.2883-70.0363 76.1865-68.1426 76.1865-65.9766C76.1865-63.8061 74.2883-62.0913 72.1178-62.0913Z"/>
  </g>
  <g id="Black-M" transform="matrix(1 0 0 1 2871.35 1126)">
   <path d="M62.0422 18.116C91.4096 18.116 115.367-5.83615 115.367-35.2036C115.367-64.5709 91.4041-88.5232 62.0367-88.5232C32.6752-88.5232 8.72266-64.5709 8.72266-35.2036C8.72266-5.83615 32.6807 18.116 62.0422 18.116ZM52.3506-7.83952C49.0624-7.83952 46.5071-10.0975 46.5071-13.5633C46.5071-16.7217 49.0624-19.219 52.3506-19.219L57.4918-19.219L57.4918-31.9752L53.4596-31.9752C50.1253-31.9752 47.5645-34.2903 47.5645-37.699C47.5645-40.8572 50.1253-43.3548 53.4596-43.3548L63.8992-43.3548C68.2077-43.3548 70.3982-40.4871 70.3982-35.9331L70.3982-19.219L73.3696-19.219C76.6526-19.219 79.2132-16.7217 79.2132-13.5633C79.2132-10.0975 76.6526-7.83952 73.3696-7.83952ZM62.3409-49.0233C57.6529-49.0233 53.6628-53.0191 53.6628-57.65C53.6628-62.572 57.6529-66.3849 62.3409-66.3849C67.0289-66.3849 70.9506-62.572 70.9506-57.65C70.9506-53.0191 67.0289-49.0233 62.3409-49.0233Z"/>
  </g>
  <g id="Heavy-M" transform="matrix(1 0 0 1 2575.47 1126)">
   <path d="M61.2053 17.2657C90.0667 17.2657 113.704-6.35567 113.704-35.217C113.704-64.0783 90.0503-87.6997 61.1889-87.6997C32.3418-87.6997 8.72266-64.0783 8.72266-35.217C8.72266-6.35567 32.3582 17.2657 61.2053 17.2657ZM51.7275-7.63698C48.7188-7.63698 46.3949-9.71674 46.3949-12.8659C46.3949-15.7313 48.7188-18.0183 51.7275-18.0183L57.1228-18.0183L57.1228-33.1862L52.7679-33.1862C49.7484-33.1862 47.4081-35.3096 47.4081-38.4151C47.4081-41.2828 49.7484-43.5676 52.7679-43.5676L62.9912-43.5676C66.8868-43.5676 68.8856-40.939 68.8856-36.8242L68.8856-18.0183L72.6233-18.0183C75.6133-18.0183 77.9559-15.7313 77.9559-12.8659C77.9559-9.71674 75.6133-7.63698 72.6233-7.63698ZM61.3358-49.8581C56.8881-49.8581 53.1447-53.6155 53.1447-58.0197C53.1447-62.6584 56.8881-66.2566 61.3358-66.2566C65.7835-66.2566 69.4526-62.6584 69.4526-58.0197C69.4526-53.6155 65.7835-49.8581 61.3358-49.8581Z"/>
  </g>
  <g id="Bold-M" transform="matrix(1 0 0 1 2279.69 1126)">
   <path d="M60.2691 16.3144C88.5644 16.3144 111.844-6.93682 111.844-35.2321C111.844-63.5273 88.5358-86.7786 60.2405-86.7786C31.9688-86.7786 8.72266-63.5273 8.72266-35.2321C8.72266-6.93682 31.9974 16.3144 60.2691 16.3144ZM51.0304-7.41041C48.3344-7.41041 46.2694-9.29083 46.2694-12.0857C46.2694-14.6234 48.3344-16.6752 51.0304-16.6752L56.7102-16.6752L56.7102-34.5409L51.9941-34.5409C49.3268-34.5409 47.2332-36.4499 47.2332-39.2162C47.2332-41.759 49.3268-43.8057 51.9941-43.8057L61.9754-43.8057C65.4092-43.8057 67.1936-41.4446 67.1936-37.821L67.1936-16.6752L71.7885-16.6752C74.4507-16.6752 76.5495-14.6234 76.5495-12.0857C76.5495-9.29083 74.4507-7.41041 71.7885-7.41041ZM60.2115-50.792C56.0325-50.792 52.5652-54.2827 52.5652-58.4332C52.5652-62.755 56.0325-66.1131 60.2115-66.1131C64.3904-66.1131 67.777-62.755 67.777-58.4332C67.777-54.2827 64.3904-50.792 60.2115-50.792Z"/>
  </g>
  <g id="Semibold-M" transform="matrix(1 0 0 1 1983.62 1126)">
   <path d="M59.6237 15.6586C87.5287 15.6586 110.562-7.33746 110.562-35.2425C110.562-63.1475 87.4917-86.1436 59.5867-86.1436C31.7116-86.1436 8.72266-63.1475 8.72266-35.2425C8.72266-7.33746 31.7487 15.6586 59.6237 15.6586ZM50.5498-7.25421C48.0693-7.25421 46.1828-8.99721 46.1828-11.5479C46.1828-13.8596 48.0693-15.7492 50.5498-15.7492L56.4256-15.7492L56.4256-35.4748L51.4607-35.4748C49.0362-35.4748 47.1126-37.236 47.1126-39.7685C47.1126-42.0873 49.0362-43.9699 51.4607-43.9699L61.2752-43.9699C64.3906-43.9699 66.0271-41.7931 66.0271-38.5082L66.0271-15.7492L71.213-15.7492C73.6492-15.7492 75.58-13.8596 75.58-11.5479C75.58-8.99721 73.6492-7.25421 71.213-7.25421ZM59.4364-51.4358C55.4427-51.4358 52.1657-54.7427 52.1657-58.7182C52.1657-62.8216 55.4427-66.0141 59.4364-66.0141C63.43-66.0141 66.6218-62.8216 66.6218-58.7182C66.6218-54.7427 63.43-51.4358 59.4364-51.4358Z"/>
  </g>
  <g id="Medium-M" transform="matrix(1 0 0 1 1687.4 1126)">
   <path d="M59.1344 15.1614C86.7435 15.1614 109.59-7.64125 109.59-35.2504C109.59-62.8595 86.7001-85.6621 59.0909-85.6621C31.5167-85.6621 8.72266-62.8595 8.72266-35.2504C8.72266-7.64125 31.5602 15.1614 59.1344 15.1614ZM50.1854-7.13578C47.8684-7.13578 46.1172-8.77457 46.1172-11.14C46.1172-13.2804 47.8684-15.0471 50.1854-15.0471L56.2099-15.0471L56.2099-36.183L51.0562-36.183C48.8158-36.183 47.0212-37.832 47.0212-40.1872C47.0212-42.3362 48.8158-44.0943 51.0562-44.0943L60.7443-44.0943C63.6182-44.0943 65.1426-42.0573 65.1426-39.0292L65.1426-15.0471L70.7766-15.0471C73.0415-15.0471 74.8448-13.2804 74.8448-11.14C74.8448-8.77457 73.0415-7.13578 70.7766-7.13578ZM58.8486-51.924C54.9954-51.924 51.8628-55.0914 51.8628-58.9343C51.8628-62.8721 54.9954-65.9391 58.8486-65.9391C62.7018-65.9391 65.7459-62.8721 65.7459-58.9343C65.7459-55.0914 62.7018-51.924 58.8486-51.924Z"/>
  </g>
  <g id="Regular-M" transform="matrix(1 0 0 1 1391.32 1126)">
   <path d="M58.4961 14.5128C85.7192 14.5128 108.321-8.03749 108.321-35.2606C108.321-62.4838 85.6675-85.0341 58.4443-85.0341C31.2624-85.0341 8.72266-62.4838 8.72266-35.2606C8.72266-8.03749 31.3142 14.5128 58.4961 14.5128ZM49.7101-6.9813C47.6063-6.9813 46.0316-8.48418 46.0316-10.6081C46.0316-12.525 47.6063-14.1313 49.7101-14.1313L55.9285-14.1313L55.9285-37.1066L50.5286-37.1066C48.5283-37.1066 46.9019-38.6095 46.9019-40.7334C46.9019-42.6608 48.5283-44.2567 50.5286-44.2567L60.0517-44.2567C62.6107-44.2567 63.989-42.402 63.989-39.7088L63.989-14.1313L70.2074-14.1313C72.2488-14.1313 73.8859-12.525 73.8859-10.6081C73.8859-8.48418 72.2488-6.9813 70.2074-6.9813ZM58.082-52.5607C54.4121-52.5607 51.4677-55.5463 51.4677-59.2163C51.4677-62.938 54.4121-65.8412 58.082-65.8412C61.752-65.8412 64.6035-62.938 64.6035-59.2163C64.6035-55.5463 61.752-52.5607 58.082-52.5607Z"/>
  </g>
  <g id="Light-M" transform="matrix(1 0 0 1 1095.44 1126)">
   <path d="M57.6748 13.6915C84.4872 13.6915 106.662-8.44814 106.662-35.2606C106.662-62.0731 84.4526-84.2127 57.6401-84.2127C30.8346-84.2127 8.72266-62.0731 8.72266-35.2606C8.72266-8.44814 30.8693 13.6915 57.6748 13.6915ZM48.7862-7.69999C47.1101-7.69999 45.9118-8.91193 45.9118-10.5397C45.9118-12.0288 47.1101-13.31 48.7862-13.31L55.8943-13.31L55.8943-38.9888L49.4164-38.9888C47.8097-38.9888 46.5768-40.2008 46.5768-41.8285C46.5768-43.3452 47.8097-44.5989 49.4164-44.5989L59.025-44.5989C60.9852-44.5989 62.0725-43.1721 62.0725-41.1632L62.0725-13.31L69.1807-13.31C70.7944-13.31 72.055-12.0288 72.055-10.5397C72.055-8.91193 70.7944-7.69999 69.1807-7.69999ZM57.3976-53.6387C54.3436-53.6387 51.8784-56.111 51.8784-59.1649C51.8784-62.2536 54.3436-64.7119 57.3976-64.7119C60.4516-64.7119 62.8753-62.2536 62.8753-59.1649C62.8753-56.111 60.4516-53.6387 57.3976-53.6387Z"/>
  </g>
  <g id="Thin-M" transform="matrix(1 0 0 1 799.828 1126)">
   <path d="M56.5885 12.6052C82.8578 12.6052 104.466-8.99126 104.466-35.2606C104.466-61.53 82.8458-83.1264 56.5764-83.1264C30.2689-83.1264 8.72266-61.53 8.72266-35.2606C8.72266-8.99126 30.2809 12.6052 56.5885 12.6052ZM47.5641-8.65052C46.4538-8.65052 45.7534-9.47767 45.7534-10.4492C45.7534-11.3725 46.4538-12.2237 47.5641-12.2237L55.849-12.2237L55.849-41.4782L47.9455-41.4782C46.8592-41.4782 46.1468-42.3055 46.1468-43.2768C46.1468-44.2504 46.8592-45.0515 47.9455-45.0515L57.6672-45.0515C58.8353-45.0515 59.5379-44.1905 59.5379-43.0868L59.5379-12.2237L67.8229-12.2237C68.8708-12.2237 69.6335-11.3725 69.6335-10.4492C69.6335-9.47767 68.8708-8.65052 67.8229-8.65052ZM56.4924-55.0644C54.2531-55.0644 52.4215-56.8578 52.4215-59.0971C52.4215-61.3484 54.2531-63.2183 56.4924-63.2183C58.7317-63.2183 60.5896-61.3484 60.5896-59.0971C60.5896-56.8578 58.7317-55.0644 56.4924-55.0644Z"/>
  </g>
  <g id="Ultralight-M" transform="matrix(1 0 0 1 503.679 1126)">
   <path d="M56.0322 12.0488C82.0232 12.0488 103.342-9.26944 103.342-35.2606C103.342-61.2518 82.0228-82.5701 56.0316-82.5701C29.9791-82.5701 8.72266-61.2518 8.72266-35.2606C8.72266-9.26944 29.9795 12.0488 56.0322 12.0488ZM46.9382-9.13737C46.1176-9.13737 45.6722-9.76745 45.6722-10.4028C45.6722-11.0363 46.1176-11.6673 46.9382-11.6673L55.8258-11.6673L55.8258-42.7532L47.192-42.7532C46.3724-42.7532 45.9266-43.3834 45.9266-44.0187C45.9266-44.7141 46.3724-45.2833 47.192-45.2833L56.9717-45.2833C57.7341-45.2833 58.2397-44.7121 58.2397-44.0721L58.2397-11.6673L67.1274-11.6673C67.8856-11.6673 68.3932-11.0363 68.3932-10.4028C68.3932-9.76745 67.8856-9.13737 67.1274-9.13737ZM56.0287-55.7946C54.2067-55.7946 52.6997-57.2403 52.6997-59.0623C52.6997-60.8847 54.2067-62.4533 56.0287-62.4533C57.8507-62.4533 59.4189-60.8847 59.4189-59.0623C59.4189-57.2403 57.8507-55.7946 56.0287-55.7946Z"/>
  </g>
  <g id="Black-S" transform="matrix(1 0 0 1 2884.57 696)">
   <path d="M48.8281 6.78711C71.9727 6.78711 90.8203-12.0605 90.8203-35.2051C90.8203-58.3496 71.9727-77.1973 48.8281-77.1973C25.6836-77.1973 6.83594-58.3496 6.83594-35.2051C6.83594-12.0605 25.6836 6.78711 48.8281 6.78711ZM41.1621-13.8672C38.5254-13.8672 36.4746-15.6738 36.4746-18.457C36.4746-20.9961 38.5254-22.998 41.1621-22.998L45.166-22.998L45.166-32.4219L42.041-32.4219C39.3555-32.4219 37.3047-34.2773 37.3047-37.0117C37.3047-39.5508 39.3555-41.5527 42.041-41.5527L50.293-41.5527C53.7598-41.5527 55.5176-39.2578 55.5176-35.5957L55.5176-22.998L57.666-22.998C60.3027-22.998 62.3535-20.9961 62.3535-18.457C62.3535-15.6738 60.3027-13.8672 57.666-13.8672ZM49.1211-45.8496C45.4102-45.8496 42.2363-49.0234 42.2363-52.6855C42.2363-56.5918 45.4102-59.6191 49.1211-59.6191C52.832-59.6191 55.957-56.5918 55.957-52.6855C55.957-49.0234 52.832-45.8496 49.1211-45.8496Z"/>
  </g>
  <g id="Heavy-S" transform="matrix(1 0 0 1 2588.46 696)">
   <path d="M48.2173 6.16479C70.9816 6.16479 89.6102-12.4523 89.6102-35.2166C89.6102-57.9808 70.9701-76.598 48.2058-76.598C25.4531-76.598 6.83594-57.9808 6.83594-35.2166C6.83594-12.4523 25.4646 6.16479 48.2173 6.16479ZM40.7472-13.6021C38.2949-13.6021 36.3939-15.2935 36.3939-17.8693C36.3939-20.2124 38.2949-22.0761 40.7472-22.0761L44.8549-22.0761L44.8549-33.2171L41.5915-33.2171C39.125-33.2171 37.2125-34.9457 37.2125-37.4842C37.2125-39.8274 39.125-41.691 41.5915-41.691L49.6476-41.691C52.8378-41.691 54.4689-39.5459 54.4689-36.1719L54.4689-22.0761L57.1589-22.0761C59.5997-22.0761 61.5122-20.2124 61.5122-17.8693C61.5122-15.2935 59.5997-13.6021 57.1589-13.6021ZM48.349-46.4258C44.7648-46.4258 41.7408-49.4613 41.7408-53.0082C41.7408-56.7531 44.7648-59.6537 48.349-59.6537C51.9331-59.6537 54.8967-56.7531 54.8967-53.0082C54.8967-49.4613 51.9331-46.4258 48.349-46.4258Z"/>
  </g>
  <g id="Bold-S" transform="matrix(1 0 0 1 2292.43 696)">
   <path d="M47.5342 5.46875C69.873 5.46875 88.2568-12.8906 88.2568-35.2295C88.2568-57.5684 69.8486-75.9278 47.5098-75.9278C25.1953-75.9278 6.83594-57.5684 6.83594-35.2295C6.83594-12.8906 25.2197 5.46875 47.5342 5.46875ZM40.2832-13.3057C38.0371-13.3057 36.3037-14.8682 36.3037-17.2119C36.3037-19.3359 38.0371-21.0449 40.2832-21.0449L44.5069-21.0449L44.5069-34.1064L41.0889-34.1064C38.8672-34.1064 37.1094-35.6934 37.1094-38.0127C37.1094-40.1368 38.8672-41.8457 41.0889-41.8457L48.9258-41.8457C51.8066-41.8457 53.2959-39.8681 53.2959-36.8164L53.2959-21.0449L56.5918-21.0449C58.8135-21.0449 60.5713-19.3359 60.5713-17.2119C60.5713-14.8682 58.8135-13.3057 56.5918-13.3057ZM47.4853-47.0703C44.043-47.0703 41.1865-49.9512 41.1865-53.3691C41.1865-56.9336 44.043-59.6923 47.4853-59.6923C50.9277-59.6923 53.7109-56.9336 53.7109-53.3691C53.7109-49.9512 50.9277-47.0703 47.4853-47.0703Z"/>
  </g>
  <g id="Semibold-S" transform="matrix(1 0 0 1 1996.19 696)">
   <path d="M47.0632 4.98887C69.1088 4.98887 87.3238-13.1928 87.3238-35.2384C87.3238-57.284 69.0755-75.4656 47.0299-75.4656C25.0176-75.4656 6.83594-57.284 6.83594-35.2384C6.83594-13.1928 25.0509 4.98887 47.0632 4.98887ZM39.9633-13.1012C37.8594-13.1012 36.2415-14.5749 36.2415-16.7587C36.2415-18.7317 37.8594-20.334 39.9633-20.334L44.2669-20.334L44.2669-34.7196L40.7423-34.7196C38.6895-34.7196 37.0383-36.2088 37.0383-38.3771C37.0383-40.35 38.6895-41.9524 40.7423-41.9524L48.4281-41.9524C51.0957-41.9524 52.4872-40.0903 52.4872-37.2607L52.4872-20.334L56.2008-20.334C58.2714-20.334 59.9226-18.7317 59.9226-16.7587C59.9226-14.5749 58.2714-13.1012 56.2008-13.1012ZM46.8899-47.5146C43.5453-47.5146 40.8044-50.2889 40.8044-53.6179C40.8044-57.058 43.5453-59.719 46.8899-59.719C50.2345-59.719 52.8933-57.058 52.8933-53.6179C52.8933-50.2889 50.2345-47.5146 46.8899-47.5146Z"/>
  </g>
  <g id="Medium-S" transform="matrix(1 0 0 1 1699.83 696)">
   <path d="M46.706 4.625C68.5293 4.625 86.6162-13.4219 86.6162-35.2451C86.6162-57.0684 68.4893-75.1152 46.666-75.1152C24.8828-75.1152 6.83594-57.0684 6.83594-35.2451C6.83594-13.4219 24.9229 4.625 46.706 4.625ZM39.7207-12.9463C37.7246-12.9463 36.1943-14.3525 36.1943-16.415C36.1943-18.2735 37.7246-19.7949 39.7207-19.7949L44.085-19.7949L44.085-35.1846L40.4795-35.1846C38.5547-35.1846 36.9844-36.5996 36.9844-38.6533C36.9844-40.5118 38.5547-42.0332 40.4795-42.0332L48.0508-42.0332C50.5566-42.0332 51.874-40.2588 51.874-37.5976L51.874-19.7949L55.9043-19.7949C57.8603-19.7949 59.4307-18.2735 59.4307-16.415C59.4307-14.3525 57.8603-12.9463 55.9043-12.9463ZM46.4385-47.8515C43.168-47.8515 40.5146-50.5449 40.5146-53.8066C40.5146-57.1524 43.168-59.7392 46.4385-59.7392C49.7089-59.7392 52.2734-57.1524 52.2734-53.8066C52.2734-50.5449 49.7089-47.8515 46.4385-47.8515Z"/>
  </g>
  <g id="Regular-S" transform="matrix(1 0 0 1 1403.58 696)">
   <path d="M46.2402 4.15039C67.7734 4.15039 85.6934-13.7207 85.6934-35.2539C85.6934-56.7871 67.7246-74.6582 46.1914-74.6582C24.707-74.6582 6.83594-56.7871 6.83594-35.2539C6.83594-13.7207 24.7559 4.15039 46.2402 4.15039ZM39.4043-12.7441C37.5488-12.7441 36.1328-14.0625 36.1328-15.9668C36.1328-17.6758 37.5488-19.0918 39.4043-19.0918L43.8477-19.0918L43.8477-35.791L40.1367-35.791C38.3789-35.791 36.9141-37.1094 36.9141-39.0137C36.9141-40.7227 38.3789-42.1387 40.1367-42.1387L47.5586-42.1387C49.8535-42.1387 51.0742-40.4785 51.0742-38.0371L51.0742-19.0918L55.5176-19.0918C57.3242-19.0918 58.7891-17.6758 58.7891-15.9668C58.7891-14.0625 57.3242-12.7441 55.5176-12.7441ZM45.8496-48.291C42.6758-48.291 40.1367-50.8789 40.1367-54.0527C40.1367-57.2754 42.6758-59.7656 45.8496-59.7656C49.0234-59.7656 51.4648-57.2754 51.4648-54.0527C51.4648-50.8789 49.0234-48.291 45.8496-48.291Z"/>
  </g>
  <g id="Light-S" transform="matrix(1 0 0 1 1107.6 696)">
   <path d="M45.5137 3.42383C66.6836 3.42383 84.2251-14.084 84.2251-35.2539C84.2251-56.4238 66.6499-73.9316 45.48-73.9316C24.3286-73.9316 6.83594-56.4238 6.83594-35.2539C6.83594-14.084 24.3623 3.42383 45.5137 3.42383ZM38.5869-13.3799C37.1098-13.3799 36.0268-14.4409 36.0268-15.9063C36.0268-17.2368 37.1098-18.3652 38.5869-18.3652L43.8174-18.3652L43.8174-37.456L39.1528-37.456C37.7432-37.456 36.6265-38.5171 36.6265-39.9824C36.6265-41.3281 37.7432-42.4414 39.1528-42.4414L46.6504-42.4414C48.4155-42.4414 49.3789-41.1597 49.3789-39.3237L49.3789-18.3652L54.6094-18.3652C56.0376-18.3652 57.1695-17.2368 57.1695-15.9063C57.1695-14.4409 56.0376-13.3799 54.6094-13.3799ZM45.2441-49.2446C42.6152-49.2446 40.5-51.3784 40.5-54.0073C40.5-56.6699 42.6152-58.7666 45.2441-58.7666C47.873-58.7666 49.936-56.6699 49.936-54.0073C49.936-51.3784 47.873-49.2446 45.2441-49.2446Z"/>
  </g>
  <g id="Thin-S" transform="matrix(1 0 0 1 811.863 696)">
   <path d="M44.5528 2.4629C65.2422 2.4629 82.2832-14.5644 82.2832-35.2539C82.2832-55.9434 65.2285-72.9707 44.539-72.9707C23.8281-72.9707 6.83594-55.9434 6.83594-35.2539C6.83594-14.5644 23.8418 2.4629 44.5528 2.4629ZM37.5059-14.2207C36.5293-14.2207 35.8867-14.9414 35.8867-15.8262C35.8867-16.6563 36.5293-17.4043 37.5059-17.4043L43.7773-17.4043L43.7773-39.6582L37.8516-39.6582C36.9024-39.6582 36.2461-40.3789 36.2461-41.2637C36.2461-42.1289 36.9024-42.8418 37.8516-42.8418L45.4492-42.8418C46.5137-42.8418 47.1367-42.0606 47.1367-41.0253L47.1367-17.4043L53.4082-17.4043C54.336-17.4043 55.0274-16.6563 55.0274-15.8262C55.0274-14.9414 54.336-14.2207 53.4082-14.2207ZM44.4434-50.5058C42.5351-50.5058 40.9805-52.039 40.9805-53.9473C40.9805-55.8692 42.5351-57.4453 44.4434-57.4453C46.3516-57.4453 47.9141-55.8692 47.9141-53.9473C47.9141-52.039 46.3516-50.5058 44.4434-50.5058Z"/>
  </g>
  <g id="Ultralight-S" transform="matrix(1 0 0 1 515.649 696)">
   <path d="M44.0606 1.97072C64.5039 1.97072 81.2886-14.8105 81.2886-35.2539C81.2886-55.6973 64.5005-72.4785 44.0571-72.4785C23.5718-72.4785 6.83594-55.6973 6.83594-35.2539C6.83594-14.8105 23.5752 1.97072 44.0606 1.97072ZM36.9522-14.6514C36.2319-14.6514 35.8149-15.1977 35.8149-15.7852C35.8149-16.3589 36.2319-16.9121 36.9522-16.9121L43.7568-16.9121L43.7568-40.7861L37.1851-40.7861C36.4717-40.7861 36.0513-41.3325 36.0513-41.9199C36.0513-42.539 36.4717-43.0469 37.1851-43.0469L44.834-43.0469C45.5396-43.0469 45.9883-42.522 45.9883-41.8969L45.9883-16.9121L52.793-16.9121C53.4644-16.9121 53.9302-16.3589 53.9302-15.7852C53.9302-15.1977 53.4644-14.6514 52.793-14.6514ZM44.0332-51.1518C42.4941-51.1518 41.2266-52.3774 41.2266-53.9165C41.2266-55.459 42.4941-56.7686 44.0332-56.7686C45.5723-56.7686 46.8785-55.459 46.8785-53.9165C46.8785-52.3774 45.5723-51.1518 44.0332-51.1518Z"/>
  </g>
 </g>
</svg>
